<svg width="27" height="34" viewBox="0 0 27 34" fill="none" xmlns="http://www.w3.org/2000/svg">
<g filter="url(#filter0_i)">
<path d="M17.6538 6.37525C19.3744 6.37525 20.7692 4.94812 20.7692 3.18762C20.7692 1.42713 19.3744 0 17.6538 0C15.9332 0 14.5385 1.42713 14.5385 3.18762C14.5385 4.94812 15.9332 6.37525 17.6538 6.37525ZM7.37892 21.0828L6.41834 23.3752H2.07692C0.930072 23.3752 0 24.3269 0 25.5003C0 26.6738 0.930072 27.6254 2.07692 27.6254H7.10373C8.35312 27.6254 9.47791 26.8657 9.96663 25.6936L10.5371 24.3309L9.84461 23.9125C8.72048 23.2331 7.89361 22.2277 7.37892 21.0828ZM24.9231 14.8749H22.0654L20.374 11.3386C19.5627 9.6419 18.0731 8.40138 16.3642 7.95578L11.7508 6.5519C9.91406 6.10032 8.00135 6.51537 6.50401 7.69014L3.92928 9.70964C3.01868 10.4235 2.84603 11.757 3.54505 12.6887C4.24406 13.6205 5.54668 13.7951 6.45663 13.0819L9.03267 11.0624C9.53048 10.6712 10.1646 10.5311 10.6728 10.6546L11.6269 10.9448L9.19558 16.7483C8.37649 18.706 9.11055 20.9991 10.9025 22.0816L16.4181 25.4133L14.6352 31.2394C14.2925 32.359 14.9019 33.5511 15.9962 33.9017C16.2032 33.9681 16.4122 34 16.618 34C17.5013 34 18.3204 33.4176 18.5988 32.5091L20.6524 25.7978C21.036 24.4185 20.4648 22.9369 19.2479 22.1859L15.2732 19.7859L17.3053 14.5874L18.6209 17.3387C19.1401 18.4238 20.2383 19.1244 21.4189 19.1244H24.9231C26.0699 19.1244 27 18.1728 27 16.9993C27 15.8259 26.0699 14.8749 24.9231 14.8749Z" fill="#62CBC9"/>
</g>
<defs>
<filter id="filter0_i" x="0" y="0" width="28" height="35" filterUnits="userSpaceOnUse" color-interpolation-filters="sRGB">
<feFlood flood-opacity="0" result="BackgroundImageFix"/>
<feBlend mode="normal" in="SourceGraphic" in2="BackgroundImageFix" result="shape"/>
<feColorMatrix in="SourceAlpha" type="matrix" values="0 0 0 0 0 0 0 0 0 0 0 0 0 0 0 0 0 0 127 0" result="hardAlpha"/>
<feOffset dx="1" dy="1"/>
<feGaussianBlur stdDeviation="0.5"/>
<feComposite in2="hardAlpha" operator="arithmetic" k2="-1" k3="1"/>
<feColorMatrix type="matrix" values="0 0 0 0 0 0 0 0 0 0.686275 0 0 0 0 0.666667 0 0 0 1 0"/>
<feBlend mode="normal" in2="shape" result="effect1_innerShadow"/>
</filter>
</defs>
</svg>
