<svg width="32" height="19" viewBox="0 0 32 19" fill="none" xmlns="http://www.w3.org/2000/svg">
<g filter="url(#filter0_i)">
<path d="M8.8 9.5C11.0055 9.5 12.8 7.72419 12.8 5.54167C12.8 3.35914 11.0055 1.58333 8.8 1.58333C6.5945 1.58333 4.8 3.35914 4.8 5.54167C4.8 7.72419 6.5945 9.5 8.8 9.5ZM26.4 3.16667H15.2C14.758 3.16667 14.4 3.52094 14.4 3.95833V11.0833H3.2V0.791667C3.2 0.354271 2.842 0 2.4 0H0.8C0.358 0 0 0.354271 0 0.791667V18.2083C0 18.6457 0.358 19 0.8 19H2.4C2.842 19 3.2 18.6457 3.2 18.2083V15.8333H28.8V18.2083C28.8 18.6457 29.158 19 29.6 19H31.2C31.642 19 32 18.6457 32 18.2083V8.70833C32 5.64755 29.493 3.16667 26.4 3.16667Z" fill="#FF9E99"/>
</g>
<defs>
<filter id="filter0_i" x="0" y="0" width="33" height="20" filterUnits="userSpaceOnUse" color-interpolation-filters="sRGB">
<feFlood flood-opacity="0" result="BackgroundImageFix"/>
<feBlend mode="normal" in="SourceGraphic" in2="BackgroundImageFix" result="shape"/>
<feColorMatrix in="SourceAlpha" type="matrix" values="0 0 0 0 0 0 0 0 0 0 0 0 0 0 0 0 0 0 127 0" result="hardAlpha"/>
<feOffset dx="1" dy="1"/>
<feGaussianBlur stdDeviation="0.5"/>
<feComposite in2="hardAlpha" operator="arithmetic" k2="-1" k3="1"/>
<feColorMatrix type="matrix" values="0 0 0 0 1 0 0 0 0 0.384314 0 0 0 0 0.34902 0 0 0 1 0"/>
<feBlend mode="normal" in2="shape" result="effect1_innerShadow"/>
</filter>
</defs>
</svg>
