<svg width="21" height="33" viewBox="0 0 21 33" fill="none" xmlns="http://www.w3.org/2000/svg">
<g filter="url(#filter0_i)">
<path d="M13.6461 6.18659C15.3848 6.18659 16.7955 4.80105 16.7955 3.0933C16.7955 1.38554 15.3848 0 13.6461 0C11.9073 0 10.4966 1.38554 10.4966 3.0933C10.4966 4.80105 11.9073 6.18659 13.6461 6.18659ZM19.8466 15.7951L18.3178 15.0347L17.6813 13.1401C16.7168 10.2659 14.0266 8.25524 10.9756 8.24879C8.61347 8.24235 7.30775 8.89967 4.85379 9.87277C3.43653 10.4334 2.27516 11.4968 1.59278 12.8501L1.15316 13.7265C0.641376 14.7447 1.05474 15.982 2.08488 16.4911C3.10846 17.0002 4.35512 16.5878 4.87347 15.5696L5.31309 14.6932C5.54274 14.2421 5.9233 13.8876 6.39572 13.7007L8.15417 13.0047L7.15684 16.9165C6.81565 18.2569 7.18308 19.6811 8.13449 20.7058L12.0648 24.9204C12.5372 25.4295 12.8718 26.0417 13.0424 26.7055L14.2431 31.4292C14.5253 32.5312 15.667 33.2078 16.789 32.9307C17.911 32.6536 18.5999 31.5323 18.3178 30.4303L16.8611 24.6948C16.6905 24.031 16.3559 23.4124 15.8835 22.9097L12.8981 19.7069L14.0266 15.2796L14.3875 16.3429C14.7352 17.3805 15.4832 18.2376 16.4675 18.7273L17.9963 19.4878C19.0198 19.9969 20.2665 19.5844 20.7848 18.5662C21.2901 17.5545 20.8767 16.3043 19.8466 15.7951ZM4.82754 24.8624C4.61758 25.3844 4.30263 25.8548 3.89583 26.2479L0.61513 29.4765C-0.205043 30.2821 -0.205043 31.5903 0.61513 32.3958C1.4353 33.2014 2.76071 33.2014 3.58088 32.3958L7.47835 28.5679C7.87859 28.1748 8.19354 27.7043 8.41006 27.1823L9.29585 25.0042C5.6674 21.1182 6.75659 22.3104 6.18575 21.5435L4.82754 24.8624Z" fill="#00AFAA"/>
</g>
<defs>
<filter id="filter0_i" x="0" y="0" width="22" height="34" filterUnits="userSpaceOnUse" color-interpolation-filters="sRGB">
<feFlood flood-opacity="0" result="BackgroundImageFix"/>
<feBlend mode="normal" in="SourceGraphic" in2="BackgroundImageFix" result="shape"/>
<feColorMatrix in="SourceAlpha" type="matrix" values="0 0 0 0 0 0 0 0 0 0 0 0 0 0 0 0 0 0 127 0" result="hardAlpha"/>
<feOffset dx="1" dy="1"/>
<feGaussianBlur stdDeviation="0.5"/>
<feComposite in2="hardAlpha" operator="arithmetic" k2="-1" k3="1"/>
<feColorMatrix type="matrix" values="0 0 0 0 0 0 0 0 0 0.513726 0 0 0 0 0.490196 0 0 0 1 0"/>
<feBlend mode="normal" in2="shape" result="effect1_innerShadow"/>
</filter>
</defs>
</svg>
